<?xml version="1.0" encoding="UTF-8"?>
<svg width="16px" height="17px" viewBox="0 0 16 17" version="1.1" xmlns="http://www.w3.org/2000/svg" xmlns:xlink="http://www.w3.org/1999/xlink">
    <!-- Generator: Sketch 40 (33762) - http://www.bohemiancoding.com/sketch -->
    <title></title>
    <desc>Created with Sketch.</desc>
    <defs></defs>
    <g id="Page-1" stroke="none" stroke-width="1" fill="none" fill-rule="evenodd">
        <path d="M10.9285714,7.32142857 C10.9285714,6.15140784 10.512746,5.1505808 9.68108259,4.31891741 C8.8494192,3.48725403 7.84859216,3.07142857 6.67857143,3.07142857 C5.5085507,3.07142857 4.50772365,3.48725403 3.67606027,4.31891741 C2.84439688,5.1505808 2.42857143,6.15140784 2.42857143,7.32142857 C2.42857143,8.4914493 2.84439688,9.49227635 3.67606027,10.3239397 C4.50772365,11.1556031 5.5085507,11.5714286 6.67857143,11.5714286 C7.84859216,11.5714286 8.8494192,11.1556031 9.68108259,10.3239397 C10.512746,9.49227635 10.9285714,8.4914493 10.9285714,7.32142857 L10.9285714,7.32142857 Z M15.7857143,15.2142857 C15.7857143,15.5431564 15.6655518,15.8277518 15.4252232,16.0680804 C15.1848946,16.3084089 14.9002993,16.4285714 14.5714286,16.4285714 C14.229909,16.4285714 13.9453136,16.3084089 13.7176339,16.0680804 L10.4637277,12.8236607 C9.33165357,13.6078908 8.06994743,14 6.67857143,14 C5.77417703,14 4.90932332,13.8244995 4.08398438,13.4734933 C3.25864543,13.1224871 2.54715701,12.6481615 1.94949777,12.0505022 C1.35183853,11.452843 0.877512916,10.7413546 0.526506696,9.91601562 C0.175500477,9.09067668 0,8.22582297 0,7.32142857 C0,6.41703417 0.175500477,5.55218047 0.526506696,4.72684152 C0.877512916,3.90150257 1.35183853,3.19001415 1.94949777,2.59235491 C2.54715701,1.99469567 3.25864543,1.52037006 4.08398438,1.16936384 C4.90932332,0.81835762 5.77417703,0.642857143 6.67857143,0.642857143 C7.58296583,0.642857143 8.44781953,0.81835762 9.27315848,1.16936384 C10.0984974,1.52037006 10.8099859,1.99469567 11.4076451,2.59235491 C12.0053043,3.19001415 12.4796299,3.90150257 12.8306362,4.72684152 C13.1816424,5.55218047 13.3571429,6.41703417 13.3571429,7.32142857 C13.3571429,8.71280458 12.9650337,9.97451071 12.1808036,11.1065848 L15.4347098,14.3604911 C15.668714,14.5944952 15.7857143,14.8790906 15.7857143,15.2142857 L15.7857143,15.2142857 Z" id="" fill="#000000"></path>
    </g>
</svg>